<?xml version="1.0" encoding="utf-8"?>
<!-- Generator: Adobe Illustrator 19.0.0, SVG Export Plug-In . SVG Version: 6.00 Build 0)  -->
<svg version="1.1" id="Layer_1" xmlns="http://www.w3.org/2000/svg" xmlns:xlink="http://www.w3.org/1999/xlink" x="0px" y="0px"
	 viewBox="0 0 104 78" style="enable-background:new 0 0 104 78;" xml:space="preserve">
<style type="text/css">
	.st0{fill:#FFFFFF;}
</style>
<path id="XMLID_3_" d="M104,78H64c0,0-10-12.5-12-33V0c0,0,13.4,26,39.4,27.9C91.4,27.9,88.7,56.3,104,78L104,78z"/>
<path id="XMLID_2_" class="st0" d="M77.8,60.7h-7c-1.6,0-2.8-1.3-2.8-2.8V45.5c0-1.6,1.3-2.8,2.8-2.8h7c1.6,0,2.8,1.3,2.8,2.8v12.3
	C80.7,59.4,79.4,60.7,77.8,60.7z"/>
<path id="XMLID_6_" d="M0,78h40c0,0,10-12.5,12-33V0c0,0-13.4,26-39.4,27.9C12.6,27.9,15.3,56,0,78L0,78z"/>
<path id="XMLID_4_" class="st0" d="M26.2,60.7h7c1.6,0,2.8-1.3,2.8-2.8V45.5c0-1.6-1.3-2.8-2.8-2.8h-7c-1.6,0-2.8,1.3-2.8,2.8v12.3
	C23.3,59.4,24.6,60.7,26.2,60.7z"/>
</svg>
