<?xml version="1.0" encoding="utf-8"?>
<!-- Generator: Adobe Illustrator 19.0.0, SVG Export Plug-In . SVG Version: 6.00 Build 0)  -->
<svg version="1.1" id="Layer_1" xmlns="http://www.w3.org/2000/svg" xmlns:xlink="http://www.w3.org/1999/xlink" x="0px" y="0px"
	 viewBox="0 0 153 119.6" style="enable-background:new 0 0 153 119.6;" xml:space="preserve">
<style type="text/css">
	.st0{fill:#FFFFFF;}
	.st1{stroke:#FFFFFF;stroke-width:0.25;stroke-miterlimit:10;}
</style>
<path id="XMLID_6_" class="st0" d="M151,64.9l2,15.3l-5.8-16.5l-9.3-3l-8.1-2.6l-4.4,18l-19.1,5.3l1.3-4.7l12.1-3.7l4.5-28.3
	l-62,2.2c-0.6,0-0.6,9.3-1.1-1.1l1.5-6.7c0-0.1,1.2-3.1,1.2-3.1c0-0.4-0.2,0.5,0,0l0.4-1.2c0.4-1.1,1.4-1.9,2.6-1.9l59.8,1l0.4,7
	l4.8-1.1c0.6,0,0.8,1.8,1.1,1.3l2.8-4.8l-4.7,8.8l1,7.5C138.6,56.5,151.8,57.6,151,64.9z"/>
<path id="XMLID_5_" class="st1" d="M134.5,37.4l11.4,1c2.3-0.4,4.7,0.8,5.7,2.9l0.8,1.5c0.4,0.8,0.6,1.6,0.6,2.5V53
	c0,6.3-6.1,11.4-11.8,8.9l-6.5-2.1c-2.4-1.5-2.6-6-2.9-8.8l-0.6-5.6"/>
<path id="XMLID_4_" class="st1" d="M68.9,33.3l53.8,0.9c2.1,0,3.8,1.9,3.5,4.1l0,0c-0.3,2.1,1.3,4,3.4,4h0c1.3,0,2.5-0.6,3.3-1.6
	l3.1-4V18.5c0-2.2-0.6-4.4-1.8-6.3L130.2,6c-2-3.2-5.5-5.1-9.3-5.2L73,0c-3.2-0.1-6.2,1.4-8.2,3.9l-3.7,4.7
	c-1.7,2.2-2.7,4.9-2.7,7.6v17.1l5.2,4l1,0.7C67.4,37.4,66.6,33.3,68.9,33.3z"/>
<path id="XMLID_3_" class="st1" d="M65,47.2H26.7l-15,4.9c-3.8,1.2-7,4.1-9.2,7.9l-2.3,5.3l23.9-5.8L10.5,76.9L0,81.2l0,15.8l11.2,5
	l8.8-2.3l8.2-6.7l29.7,10.8l1,15.7L78,108.1l55-1.5v13l14.8-15.5l-2.5-24.2l7.7,0.3l-5.8-16.5l-17.4-5.5l-4.4,18l-16.3,3.5l-1.4-2.8
	l14.6-4.4l7.4-30.3c0.6-5-6.6-14.6-11.7-14.7l-44.5,0C69.1,27.4,65,38.8,65,43.2V47.2z"/>
<path id="XMLID_2_" d="M77.7,72.5l20.8,4.6l0,0c-0.3,1.9-2.2,1.3-4.1,0.9l-11.1-1.7C81,75.8,77.6,74.8,77.7,72.5L77.7,72.5z"/>
</svg>
