<?xml version="1.0" encoding="utf-8"?>
<!-- Generator: Adobe Illustrator 19.0.0, SVG Export Plug-In . SVG Version: 6.00 Build 0)  -->
<svg version="1.1" id="Layer_1" xmlns="http://www.w3.org/2000/svg" xmlns:xlink="http://www.w3.org/1999/xlink" x="0px" y="0px"
	 viewBox="-431 244.5 97 72.5" style="enable-background:new -431 244.5 97 72.5;" xml:space="preserve">
<style type="text/css">
	.st0{fill:#FFFFFF;}
	.st1{fill:#FFFFFF;stroke:#000000;stroke-miterlimit:10;}
	.st2{fill:#EB2534;stroke:#000000;stroke-miterlimit:10;}
	.st3{fill:#FF0000;}
	.st4{fill:none;}
</style>
<polygon id="XMLID_31_" points="-400,248.2 -416.9,247.8 -408.8,287.6 -406.7,317 -415.8,316.2 -431,244.5 -417.6,244.6 
	-417.6,244.6 -400,247.7 -369.2,248.2 -369,248.8 "/>
<polygon id="XMLID_34_" class="st0" points="-336.8,271.6 -356.5,288.2 -357,287.4 -363,293.3 -370,295 -369.9,295.5 -380.2,296.7 
	-382.2,290.3 -378,285 -370.1,282.2 -370,268.3 -362,264.5 -336.9,264.7 "/>
<polygon id="XMLID_1_" class="st0" points="-373.1,248.6 -427,247.7 -427,257.5 -415,257.5 -411.6,277.9 -415.2,279.5 -415.7,286.4 
	-397.5,285.7 -377.9,282.6 -372.5,273 "/>
<polygon id="XMLID_6_" class="st0" points="-422,271.5 -422,280.8 -417,280.1 -415.8,271.5 "/>
<polygon id="XMLID_7_" class="st1" points="-426.5,256.3 -426.5,261.7 -424,263.8 -422.6,256.9 "/>
<polygon id="XMLID_28_" points="-335.8,263.8 -335.8,263.8 -336.2,263.8 "/>
<path id="XMLID_46_" d="M-370.1,282.1l0.2-13v1.4v-1.4v-0.8l8-3.8l24.8,0.4l-0.3,0.3v5.4l-15.6,14.1l0,0l-6.7,4.2l-8.7,2.1l-1.8,4.6
	l12.1-3.9l5.9-4.4l0,0l17.1-16.1l1.2-7.1l-1.8-0.3l-0.5-0.3h-0.2l-32-0.8l-0.6-13.9l-4.1-0.2l0.6,24.3l-5.4,9.7l-15.7,1l-3.8,2
	l17.3,11l-2-6.5l0,0v0.1l2.1-2.7l0,0l6.1-2.7L-370.1,282.1 M-336.3,263.8L-336.3,263.8"/>
<path id="XMLID_29_" d="M-336.3,263.8h0.1H-336.3z"/>
<polygon id="XMLID_30_" points="-335.8,263.8 -335.8,263.8 -336.2,263.8 "/>
<path id="XMLID_14_" d="M-353.1,286.1"/>
<path id="XMLID_13_" d="M-351.7,286.8"/>
<path id="XMLID_15_" class="st2" d="M-348.7,271.9"/>
<path id="XMLID_16_" class="st2" d="M-368.4,291"/>
<polygon id="XMLID_25_" points="-371.7,282.2 -372.3,282.3 -372.3,282.3 "/>
<path id="XMLID_3_" d="M-370,268.3"/>
<path id="XMLID_17_" class="st3" d="M-324.5,322.4"/>
<path id="XMLID_4_" class="st3" d="M-370.2,295.6l-10,1.1L-370.2,295.6z"/>
<line id="XMLID_20_" class="st4" x1="-370.2" y1="295.6" x2="-380.2" y2="296.7"/>
<polygon id="XMLID_33_" points="-380,287.5 -380,287.5 -382.1,290.3 -382.2,290.4 "/>
<polygon id="XMLID_43_" points="-370,269.1 -370,270.5 -370.1,282.1 "/>
<path id="XMLID_26_" d="M-372.3,282.3l0.6-0.1L-372.3,282.3z"/>
</svg>
