<?xml version="1.0" encoding="utf-8"?>
<!-- Generator: Adobe Illustrator 19.0.0, SVG Export Plug-In . SVG Version: 6.00 Build 0)  -->
<svg version="1.1" id="Layer_1" xmlns="http://www.w3.org/2000/svg" xmlns:xlink="http://www.w3.org/1999/xlink" x="0px" y="0px"
	 viewBox="-422.7 237.2 49 85.8" style="enable-background:new -422.7 237.2 49 85.8;" xml:space="preserve">
<style type="text/css">
	.st0{fill:#FFFFFF;}
</style>
<path id="XMLID_51_" d="M-373.7,279.9v-28.1l-24.5-14.6l-24.5,14.6v28.1l8.2,4.1h0.2l0.1,31.9l-6.4,7.1h18v-16c0,0,0.9-7.4,5-7.6
	c4.1,0.2,5,7.6,5,7.6v16h16.6l-6.4-7.1l0.1-31.9L-373.7,279.9z M-387.7,255.5c0-1.2,0.7-2.5,1.9-2.5h3c1.2,0,2.1,1.2,2.1,2.5v15.6
	c0,1.2-0.9,1.9-2.1,1.9h-3c-1.2,0-1.9-0.7-1.9-1.9V255.5z M-401.7,255.5c0-1.2,0.6-2.5,1.8-2.5h3c1.2,0,2.2,1.2,2.2,2.5v15.6
	c0,1.2-1,1.9-2.2,1.9h-3c-1.2,0-1.8-0.7-1.8-1.9V255.5z M-416.7,271.1v-15.6c0-1.2,1.5-2.5,2.7-2.5h3c1.2,0,2.3,1.2,2.3,2.5v15.6
	c0,1.2-1.1,1.9-2.3,1.9h-3C-415.3,273-416.7,272.4-416.7,271.1z"/>
<path id="XMLID_43_" d="M-408.7,255.5v15.6c0,1.2-1.1,1.9-2.3,1.9h-3c-1.2,0-2.7-0.7-2.7-1.9v-15.6c0-1.2,1.5-2.5,2.7-2.5h3
	C-409.8,253-408.7,254.3-408.7,255.5z"/>
<path id="XMLID_44_" d="M-394.7,255.5v15.6c0,1.2-1,1.9-2.2,1.9h-3c-1.2,0-1.8-0.7-1.8-1.9v-15.6c0-1.2,0.6-2.5,1.8-2.5h3
	C-395.7,253-394.7,254.3-394.7,255.5z"/>
<path id="XMLID_45_" d="M-380.7,255.5v15.6c0,1.2-0.9,1.9-2.1,1.9h-3c-1.2,0-1.9-0.7-1.9-1.9v-15.6c0-1.2,0.7-2.5,1.9-2.5h3
	C-381.6,253-380.7,254.3-380.7,255.5z"/>
<path id="XMLID_40_" class="st0" d="M-408.7,255.5v15.6c0,1.2-1.1,1.9-2.3,1.9h-3c-1.2,0-2.7-0.7-2.7-1.9v-15.6
	c0-1.2,1.5-2.5,2.7-2.5h3C-409.8,253-408.7,254.3-408.7,255.5z"/>
<path id="XMLID_39_" class="st0" d="M-394.7,255.5v15.6c0,1.2-1,1.9-2.2,1.9h-3c-1.2,0-1.8-0.7-1.8-1.9v-15.6c0-1.2,0.6-2.5,1.8-2.5
	h3C-395.7,253-394.7,254.3-394.7,255.5z"/>
<path id="XMLID_38_" class="st0" d="M-380.7,255.5v15.6c0,1.2-0.9,1.9-2.1,1.9h-3c-1.2,0-1.9-0.7-1.9-1.9v-15.6
	c0-1.2,0.7-2.5,1.9-2.5h3C-381.6,253-380.7,254.3-380.7,255.5z"/>
</svg>
